<?xml version="1.0" encoding="UTF-8" standalone="no"?>
<!-- Created with Inkscape (http://www.inkscape.org/) -->

<svg
   xmlns:dc="http://purl.org/dc/elements/1.1/"
   xmlns:cc="http://creativecommons.org/ns#"
   xmlns:rdf="http://www.w3.org/1999/02/22-rdf-syntax-ns#"
   xmlns:svg="http://www.w3.org/2000/svg"
   xmlns="http://www.w3.org/2000/svg"
   xmlns:sodipodi="http://sodipodi.sourceforge.net/DTD/sodipodi-0.dtd"
   xmlns:inkscape="http://www.inkscape.org/namespaces/inkscape"
   width="226mm"
   height="68mm"
   viewBox="0 0 226 68"
   version="1.1"
   id="svg8"
   inkscape:version="0.92.4 (5da689c313, 2019-01-14)"
   sodipodi:docname="agileologo.svg">
  <defs
     id="defs2">
    <pattern
       y="0"
       x="0"
       height="6"
       width="6"
       patternUnits="userSpaceOnUse"
       id="EMFhbasepattern" />
    <pattern
       y="0"
       x="0"
       height="6"
       width="6"
       patternUnits="userSpaceOnUse"
       id="EMFhbasepattern-9" />
  </defs>
  <sodipodi:namedview
     id="base"
     pagecolor="#ffffff"
     bordercolor="#666666"
     borderopacity="1.0"
     inkscape:pageopacity="0.0"
     inkscape:pageshadow="2"
     inkscape:zoom="0.98994949"
     inkscape:cx="420.57278"
     inkscape:cy="85.145179"
     inkscape:document-units="mm"
     inkscape:current-layer="layer1"
     showgrid="false"
     width="250mm"
     inkscape:window-width="1920"
     inkscape:window-height="1027"
     inkscape:window-x="-8"
     inkscape:window-y="-8"
     inkscape:window-maximized="1" />
  <metadata
     id="metadata5">
    <rdf:RDF>
      <cc:Work
         rdf:about="">
        <dc:format>image/svg+xml</dc:format>
        <dc:type
           rdf:resource="http://purl.org/dc/dcmitype/StillImage" />
        <dc:title></dc:title>
      </cc:Work>
    </rdf:RDF>
  </metadata>
  <g
     inkscape:label="Layer 1"
     inkscape:groupmode="layer"
     id="layer1"
     transform="translate(0,-229)">
    <g
       id="g3817"
       transform="matrix(0.1,0,0,0.1,73.87174,217.47764)">
      <path
         inkscape:connector-curvature="0"
         style="fill:#338cc0;fill-opacity:1;fill-rule:nonzero;stroke:none;stroke-width:0.26458332"
         d="m -694.92741,702.76223 v -85.62534 -85.62533 -85.62533 -85.42667 -5.76134 l 0.19866,-5.56266 0.39734,-5.56267 0.39733,-5.364 0.596,-5.56267 0.596,-5.16533 0.79467,-5.364 0.99333,-5.16533 0.99333,-5.16534 0.99334,-5.16533 1.39066,-4.96667 1.192,-4.768 1.58934,-4.96666 1.39067,-4.768 1.788,-4.768 1.788,-4.56934 1.788,-4.56933 1.98666,-4.56933 1.98667,-4.37067 2.18533,-4.37067 2.384,-4.172 2.18533,-4.172 2.58267,-4.172 2.58267,-3.97333 2.58266,-3.97333 2.58267,-3.77467 2.78134,-3.77467 2.97999,-3.576 2.98,-3.576 2.98001,-3.576 3.17866,-3.37733 3.17867,-3.37733 3.37733,-3.17867 3.37733,-3.17867 3.37734,-3.17866 3.576,-2.98 3.576,-2.78134 3.576,-2.78133 3.77466,-2.78133 3.77467,-2.58267 3.97333,-2.58267 3.77467,-2.384 3.97333,-2.18533 4.17201,-2.18533 3.97333,-2.18534 4.172,-1.98666 4.37067,-1.98667 4.172,-1.788 4.37066,-1.58934 4.37067,-1.58933 4.56933,-1.58933 4.37067,-1.39067 4.56933,-1.192 4.56934,-1.192 4.768,-1.192 4.56933,-0.99333 4.768,-0.79467 4.768,-0.79467 4.768,-0.596 4.768,-0.39733 4.96667,-0.39733 4.96666,-0.39734 4.96667,-0.19866 h 4.96667 4.96666 l 4.96667,0.19866 4.768,0.39734 4.96667,0.39733 4.768,0.39733 4.768,0.596 4.768,0.79467 4.768,0.79467 4.768,0.99333 4.56933,1.192 4.56933,1.192 4.56934,1.192 4.56933,1.39067 4.37067,1.58933 4.37066,1.58933 4.37067,1.58934 4.172,1.788 4.37066,1.98667 4.172,1.98666 3.97335,2.18534 4.17198,2.18533 3.97335,2.18533 3.97333,2.384 3.77465,2.58267 3.77468,2.58267 3.77468,2.78133 3.57597,2.78133 3.57601,2.78134 3.576,2.98 3.37735,3.17866 3.37733,3.17867 3.37733,3.17867 3.17867,3.37733 3.17866,3.37733 2.98,3.576 2.98,3.576 2.98,3.576 2.78133,3.77467 2.78132,3.77467 2.58268,3.97333 2.384,3.97333 2.58268,4.172 2.384,4.172 2.18533,4.172 2.18532,4.37067 1.98668,4.37067 1.98665,4.56933 1.98668,4.56933 1.58932,4.56934 1.78801,4.768 1.58932,4.768 1.39068,4.96666 1.39067,4.768 1.19201,4.96667 0.99332,5.16533 1.192,5.16534 0.79468,5.16533 0.79465,5.364 0.596,5.16533 0.596,5.56267 0.39735,5.364 0.39732,5.56267 0.19868,5.56266 v 5.76134 85.42667 85.62533 85.62533 85.62534 3.17865 l -0.19868,2.98 -0.39732,2.98 -0.596,2.78135 -0.596,2.78133 -0.79468,2.58265 -0.79467,2.58268 -0.99333,2.384 -1.192,2.384 -1.192,2.384 -1.192,1.98665 -1.39068,2.18536 -1.58932,1.788 -1.58933,1.98665 -1.58933,1.788 -1.788,1.58935 -1.788,1.58933 -1.98667,1.39065 -1.98668,1.39067 -1.98665,1.192 -2.18533,1.19201 -1.98667,0.99332 -2.18533,0.99335 -2.384,0.79465 -2.18535,0.79468 -2.38401,0.596 -2.18532,0.596 -2.384,0.39732 -4.76801,0.596 -2.384,0.19868 h -2.38397 -2.38401 l -2.384,-0.19868 -4.768,-0.596 -2.384,-0.39732 -2.384,-0.596 -2.18533,-0.596 -2.384,-0.79468 -2.18535,-0.79465 -2.18533,-0.99335 -2.18533,-0.99332 -1.98667,-1.19201 -1.98665,-1.192 -1.98668,-1.39067 -1.98668,-1.39065 -1.788,-1.58933 -1.78797,-1.58935 -1.58936,-1.788 -1.58932,-1.98665 -1.58933,-1.788 -1.39067,-2.18536 -1.39068,-1.98665 -1.192,-2.384 -0.99333,-2.384 -0.99332,-2.384 -0.99335,-2.58268 -0.59598,-2.58265 -0.79467,-2.78133 -0.39733,-2.78135 -0.39735,-2.98 -0.19865,-2.98 v -3.17865 -85.62534 -85.62533 -85.62533 -85.42667 l -0.19867,-6.15867 -0.39733,-5.96 -0.19867,-2.78133 -0.39733,-2.78134 -0.79468,-5.56266 -0.99332,-5.364 -1.192,-4.96667 -0.596,-2.58267 -0.79468,-2.384 -0.79467,-2.384 -0.79465,-2.384 -1.788,-4.56933 -1.98668,-4.37067 -2.18533,-3.97333 -2.384,-3.97333 -1.192,-1.98667 -1.39067,-1.788 -1.39066,-1.788 -1.192,-1.788 -2.98,-3.37733 -2.98,-3.17867 -2.98,-2.98 -1.788,-1.58933 -1.58934,-1.192 -1.58933,-1.39067 -1.788,-1.39067 -3.576,-2.384 -3.576,-2.18533 -3.77467,-1.98667 -3.97333,-1.788 -1.788,-0.79466 -2.18533,-0.79467 -3.97334,-1.58933 -4.172,-1.192 -4.172,-0.99334 -4.37066,-0.99333 -4.37067,-0.596 -4.56933,-0.596 h -2.18534 l -2.18533,-0.19867 -4.56933,-0.19866 -4.56934,0.19866 -2.384,0.19867 h -2.18533 l -4.56933,0.596 -2.18534,0.19867 -2.18533,0.39733 -4.172,0.99333 -2.18533,0.39734 -2.18534,0.596 -4.172,1.192 -3.97333,1.58933 -1.98667,0.79467 -1.98666,0.79466 -3.97334,1.788 -3.77466,1.98667 -1.788,1.192 -1.788,0.99333 -3.576,2.384 -3.37734,2.78134 -3.17866,2.78133 -3.17867,2.98 -1.58933,1.58933 -1.39067,1.58934 -1.39067,1.58933 -1.39066,1.788 -1.39067,1.788 -1.39067,1.788 -2.58266,3.77467 -1.192,1.788 -0.99334,2.18533 -2.18533,3.97333 -1.98667,4.37067 -1.98666,4.56933 -0.79467,2.384 -0.79467,2.384 -1.39066,4.96667 -1.192,4.96667 -0.596,2.78133 -0.39734,2.58267 -0.79466,5.56266 -0.39734,2.78134 -0.19866,2.78133 -0.39734,5.96 v 2.98 3.17867 85.42667 85.62533 85.62533 85.62534 l -0.19866,3.17865 -0.19867,2.98 -0.39733,2.98 -0.39734,2.78135 -0.596,2.78133 -0.79467,2.58265 -0.99333,2.58268 -0.99333,2.384 -0.99334,2.384 -1.192,2.384 -1.39066,1.98665 -1.39067,2.18536 -1.39066,1.788 -1.58934,1.98665 -1.788,1.788 -1.788,1.58935 -1.788,1.58933 -1.98666,1.39065 -1.98667,1.39067 -1.98667,1.192 -1.98667,1.19201 -2.18533,0.99332 -2.18533,0.99335 -2.18534,0.79465 -2.38399,0.79468 -2.18534,0.596 -2.384,0.596 -2.384,0.39732 -4.768,0.596 -2.384,0.19868 h -2.384 -2.384 l -2.384,-0.19868 -4.768,-0.596 -2.18533,-0.39732 -2.384,-0.596 -2.384,-0.596 -2.18534,-0.79468 -2.18533,-0.79465 -2.18533,-0.99335 -2.18533,-0.99332 -2.18534,-1.19201 -1.98666,-1.192 -1.98667,-1.39067 -1.788,-1.39065 -1.788,-1.58933 -1.788,-1.58935 -1.788,-1.788 -1.58933,-1.98665 -1.39067,-1.788 -1.58934,-2.18536 -1.192,-1.98665 -1.192,-2.384 -1.192,-2.384 -0.99333,-2.384 -0.79467,-2.58268 -0.79466,-2.58265 -0.596,-2.78133 -0.596,-2.78135 -0.19867,-2.98 -0.39733,-2.98 z"
         id="path3762" />
      <path
         inkscape:connector-curvature="0"
         style="fill:#cc3380;fill-opacity:1;fill-rule:nonzero;stroke:none;stroke-width:0.26458332"
         d="m -504.40608,530.91556 h 32.58134 4.56933 l 4.768,0.19865 4.37067,0.19868 4.56933,0.39732 4.37067,0.39735 4.37066,0.39733 4.37067,0.596 4.37067,0.596 4.172,0.79468 3.97333,0.79464 4.172,0.79468 3.97333,0.99333 3.97333,0.99335 3.77468,1.192 3.97332,1.192 3.57601,1.19197 3.77467,1.39068 3.57598,1.39068 3.576,1.58932 3.37736,1.58933 3.576,1.58935 3.17865,1.788 3.37733,1.788 3.17868,1.98665 3.17867,1.98668 2.97998,1.98665 2.98,2.18535 2.98,2.18533 2.78136,2.18532 2.78132,2.38401 2.78133,2.58267 2.58268,2.38401 2.58265,2.58265 2.58267,2.58267 2.38401,2.78133 2.384,2.78133 2.18532,2.98 2.18533,2.98 2.18535,2.98 1.98665,2.98 1.98668,3.17868 1.788,3.17865 1.788,3.37733 1.788,3.37735 1.58933,3.37733 1.58932,3.576 1.58936,3.57601 1.39065,3.576 1.192,3.77465 1.192,3.77468 1.192,3.77465 1.192,3.97335 0.99332,3.97333 0.79468,4.172 0.79468,3.97333 0.79465,4.172 0.596,4.37066 0.596,4.172 0.596,4.56935 0.39735,4.37066 0.19865,4.56932 0.19867,4.56933 0.19868,4.56935 v 4.76801 12.91333 3.17865 l -0.19868,2.98 -0.39732,2.98001 -0.596,2.78132 -0.596,2.78136 -0.79468,2.58265 -0.79467,2.58267 -0.99333,2.38401 -1.192,2.384 -1.192,2.384 -1.192,1.98665 -1.39068,2.18533 -1.58932,1.788 -1.58933,1.98667 -1.58933,1.78801 -1.788,1.58932 -1.98667,1.58935 -1.788,1.39065 -1.98668,1.39068 -1.98665,1.192 -2.18533,1.192 -1.98667,0.99333 -2.18533,0.99332 -2.384,0.79468 -2.18535,0.79467 -2.38401,0.596 -2.18532,0.596 -2.384,0.39733 -4.76801,0.596 -2.384,0.19868 h -2.38397 -2.38401 l -2.384,-0.19868 -4.768,-0.596 -2.384,-0.39733 -2.384,-0.596 -2.18533,-0.596 -2.384,-0.79467 -2.18535,-0.79468 -2.18533,-0.99332 -2.18533,-0.99333 -1.98667,-1.192 -1.98665,-1.192 -1.98668,-1.39068 -1.98668,-1.39065 -1.788,-1.58935 -1.78797,-1.58932 -1.58936,-1.78801 -1.58932,-1.98667 -1.58933,-1.788 -1.39067,-2.18533 -1.39068,-1.98665 -1.192,-2.384 -0.99333,-2.384 -0.99332,-2.38401 -0.99335,-2.58267 -0.59598,-2.58265 -0.79467,-2.78136 -0.39733,-2.78132 -0.39735,-2.98001 -0.19865,-2.98 v -3.17865 -12.91333 l -0.19867,-3.576 -0.19868,-3.37736 -0.19865,-3.37732 -0.39735,-3.17866 -0.596,-3.17867 -0.79465,-2.78133 -0.79468,-2.98 -0.99332,-2.58268 -0.99335,-2.78133 -1.192,-2.384 -1.192,-2.384 -1.39065,-2.384 -1.58936,-1.98665 -0.79465,-1.192 -0.79467,-0.99335 -1.788,-1.78801 -1.788,-1.98665 -1.98666,-1.58935 -1.98667,-1.58932 -2.18533,-1.58933 -2.18534,-1.39068 -2.384,-1.192 -2.58266,-1.192 -2.58267,-0.99332 -2.58267,-0.99333 -2.78133,-0.79467 -2.98,-0.596 -2.98,-0.596 -2.98,-0.596 -3.17867,-0.39733 -3.17866,-0.19868 -3.37734,-0.19867 h -3.37733 -32.58133 l -3.17867,-0.19865 -2.98,-0.19868 -2.98,-0.39732 -2.78133,-0.39735 -2.78134,-0.596 -2.58266,-0.79465 -2.58267,-0.99335 -2.384,-0.99333 -2.384,-0.99332 -2.384,-1.192 -1.98667,-1.39068 -2.18533,-1.39065 -1.788,-1.58935 -1.98667,-1.58933 -1.58933,-1.58932 -1.788,-1.78801 -1.58933,-1.788 -1.39067,-1.98667 -1.39067,-1.98665 -1.192,-1.98668 -1.192,-2.18533 -0.99333,-1.98667 -0.99333,-2.18533 -0.79467,-2.384 -0.79467,-2.18533 -0.596,-2.384 -0.596,-2.18535 -0.39733,-2.38398 -0.596,-4.768 v -2.384 l -0.19867,-2.384 0.19867,-2.38401 v -2.384 l 0.596,-4.768 0.596,-2.384 0.39733,-2.384 0.79467,-2.18533 0.79467,-2.384 0.79466,-2.18533 0.99334,-2.18535 0.99333,-1.98665 1.192,-2.18535 1.192,-1.98665 1.39067,-1.98668 1.39066,-1.98665 1.58934,-1.788 1.58933,-1.788 1.788,-1.58936 1.788,-1.58932 1.98667,-1.58933 2.18533,-1.39067 1.98667,-1.192 2.384,-1.192 2.18533,-1.19201 2.58267,-0.99332 2.58266,-0.79468 2.58267,-0.79465 2.78133,-0.596 2.78134,-0.596 2.98,-0.19867 2.98,-0.39733 z"
         id="path3764" />
      <path
         inkscape:connector-curvature="0"
         style="fill:#ff9940;fill-opacity:1;fill-rule:nonzero;stroke:none;stroke-width:0.26458332"
         d="m -247.72874,475.68623 v -115.22667 -5.76134 l 0.19868,-5.56266 0.19865,-5.56267 0.596,-5.364 0.39732,-5.364 0.79468,-5.364 0.79467,-5.364 0.79465,-5.16533 0.99335,-5.16534 1.192,-4.96666 1.19201,-5.16534 1.39065,-4.768 1.39067,-4.96666 1.58933,-4.768 1.58935,-4.768 1.78797,-4.56934 1.98668,-4.56933 1.98668,-4.37067 1.98665,-4.56933 2.18535,-4.172 2.18533,-4.37067 2.384,-4.172 2.384,-3.97333 2.58265,-4.172 2.58268,-3.77467 2.78133,-3.97333 2.78132,-3.77467 2.98,-3.576 2.78136,-3.576 3.17865,-3.576 3.17868,-3.37733 3.17865,-3.37733 3.17867,-3.17867 3.37733,-3.17867 3.576,-3.17866 3.37733,-2.98 3.576,-2.78134 3.77468,-2.78133 3.77465,-2.78133 3.77468,-2.58267 3.77468,-2.384 3.97333,-2.58267 3.97332,-2.18533 3.97333,-2.18533 4.172,-2.18534 4.17201,-1.98666 4.172,-1.98667 4.37065,-1.788 4.37068,-1.58934 4.37068,-1.58933 4.37065,-1.58933 4.56933,-1.39067 4.56935,-1.192 4.56933,-1.192 4.569328,-1.192 4.768,-0.99333 4.56933,-0.79467 4.768,-0.79467 4.96666,-0.596 4.768,-0.39733 4.768,-0.39733 4.96668,-0.39734 4.96665,-0.19866 h 4.96668 4.96665 l 4.96668,0.19866 4.96666,0.39734 4.768,0.39733 4.96668,0.39733 4.768,0.596 4.76801,0.79467 4.76797,0.79467 4.56936,0.99333 4.768,1.192 4.56933,1.192 4.56933,1.192 4.37065,1.39067 4.56935,1.58933 4.37065,1.58933 4.17201,1.58934 4.37067,1.788 4.17201,1.98667 4.17197,1.98666 4.17201,2.18534 3.97335,2.18533 3.97333,2.18533 3.97333,2.58267 3.97332,2.384 3.77468,2.58267 3.77465,2.78133 3.57601,2.78133 3.576,2.78134 3.576,2.98 3.37733,3.17866 3.37735,3.17867 3.17865,3.17867 3.37733,3.37733 2.98,3.37733 3.17868,3.576 2.98,3.576 2.78133,3.576 2.78132,3.77467 2.781362,3.97333 2.58265,3.77467 2.58267,4.172 2.38401,3.97333 2.384,4.172 2.18532,4.37067 2.18533,4.172 2.18535,4.56933 1.78798,4.37067 1.98667,4.56933 1.78801,4.768 1.58932,4.56934 1.58935,4.768 1.39065,4.96666 1.39068,4.96667 1.192,4.96667 1.192,4.96666 0.99333,5.16534 0.79467,5.16533 0.79465,5.364 0.79468,5.364 0.39732,5.364 0.596,5.364 0.19868,5.56267 0.19867,5.56266 v 5.76134 3.17866 l -0.19867,2.98 -0.39733,2.98 -0.39735,2.78134 -0.79465,2.78133 -0.596,2.58267 -0.99335,2.58266 -0.99332,2.384 -0.99333,2.384 -1.192,2.18534 -1.39068,2.18533 -1.39065,1.98667 -1.58935,1.98666 -1.58932,1.98667 -1.58933,1.58933 -1.788,1.788 -1.788,1.39067 -1.98668,1.58933 -1.98665,1.192 -1.98668,1.39067 -1.98667,1.192 -2.18533,0.99333 -2.18533,0.99334 -2.18532,0.79466 -2.384,0.79467 -2.185362,0.596 -2.384,0.596 -2.384,0.39733 -4.76798,0.596 -2.384,0.19867 h -2.384 -2.384 l -2.384,-0.19867 -4.76801,-0.596 -2.384,-0.39733 -2.18532,-0.596 -2.38401,-0.596 -2.18532,-0.79467 -2.384,-0.79466 -2.18536,-0.99334 -1.98665,-0.99333 -2.18535,-1.192 -1.98665,-1.39067 -1.98668,-1.192 -1.788,-1.58933 -1.98665,-1.39067 -1.788,-1.788 -1.58935,-1.58933 -1.58933,-1.98667 -1.58932,-1.98666 -1.39068,-1.98667 -1.192,-2.18533 -1.192,-2.18534 -1.192,-2.384 -0.99333,-2.384 -0.79467,-2.58266 -0.79465,-2.58267 -0.596,-2.78133 -0.596,-2.78134 -0.39735,-2.98 -0.19865,-2.98 v -3.17866 l -0.19868,-6.15867 -0.19867,-5.96 -0.39733,-2.78133 -0.19867,-2.78134 -0.79465,-5.56266 -0.99336,-5.364 -1.39065,-4.96667 -0.596,-2.58267 -0.79467,-2.384 -0.79465,-2.384 -0.79468,-2.384 -1.788,-4.56933 -1.98668,-4.37067 -2.18532,-3.97333 -2.384,-3.97333 -1.192,-1.98667 -1.39065,-1.788 -1.19201,-1.788 -1.39067,-1.788 -2.78133,-3.37733 -2.98,-3.17867 -3.17868,-2.98 -1.58932,-1.58933 -1.78801,-1.192 -1.58931997,-1.39067 -1.78800003,-1.39067 -3.37736,-2.384 -3.77465,-2.18533 -3.77468,-1.98667 -3.77465,-1.788 -1.98667,-0.79466 -1.98665,-0.99334 -4.17201,-1.39066 -3.97335,-1.192 -4.37065,-0.99334 -4.37068,-0.99333 -4.37065,-0.596 -4.37068,-0.596 h -2.18533 l -2.384,-0.19867 -4.56933,-0.19866 -4.56933,0.19866 -2.18535,0.19867 h -2.384 l -4.37065,0.596 -2.18533,0.19867 -2.18535,0.39733 -4.37065,0.99333 -2.18535,0.39734 -1.98666,0.596 -4.172,1.192 -4.172,1.58933 -1.98668,0.79467 -1.98665,0.79466 -3.77468,1.788 -3.774648,1.98667 -1.788,1.192 -1.788,0.99333 -3.576,2.384 -3.37733,2.78134 -3.37735,2.78133 -2.98001,2.98 -1.58932,1.58933 -1.58933,1.58934 -1.39067,1.58933 -1.39065,1.788 -1.39068,1.788 -1.192,1.788 -2.58268,3.77467 -1.192,1.98666 -1.192,1.98667 -2.18533,3.97333 -1.98665,4.37067 -1.788,4.56933 -0.79467,2.384 -0.79468,2.384 -1.39065,4.96667 -1.192,4.96667 -0.596,2.78133 -0.596,2.58267 -0.79468,5.56266 -0.19867,2.78134 -0.19865,2.78133 -0.39735,5.96 -0.19865,2.98 v 3.17867 115.22667 3.17865 l -0.19868,3.17867 -0.39732,2.78133 -0.596,2.98 -0.596,2.78136 -0.79468,2.58265 -0.79465,2.58267 -0.99335,2.38401 -1.192,2.384 -1.192,2.18532 -1.192,2.18533 -1.39065,1.98668 -1.58936,1.98665 -1.58932,1.788 -1.58933,1.788 -1.788,1.58935 -1.788,1.58933 -1.98668,1.39065 -1.98665,1.39067 -1.98667,1.192 -2.18533,1.19201 -1.98668,1.192 -2.18532,0.79467 -2.384,0.99333 -2.18533,0.596 -2.384,0.79467 -2.18533,0.39733 -2.384,0.596 -4.768,0.596 h -2.384 l -2.38401,0.19868 -2.384,-0.19868 h -2.384 l -4.768,-0.596 -2.384,-0.596 -2.38401,-0.39733 -2.18532,-0.79467 -2.384,-0.596 -2.18533,-0.99333 -2.18535,-0.79467 -2.18533,-1.192 -1.98665,-1.19201 -1.98668,-1.192 -1.98667,-1.39067 -1.98665,-1.39065 -1.788,-1.58933 -1.78801,-1.58935 -1.58932,-1.788 -1.58935,-1.788 -1.58933,-1.98665 -1.39067,-1.98668 -1.39065,-2.18533 -1.19201,-2.18532 -0.99335,-2.384 -0.99332,-2.38401 -0.99333,-2.58267 -0.596,-2.58265 -0.79467,-2.78136 -0.39733,-2.98 -0.39732,-2.78133 -0.19868,-3.17867 z"
         id="path3766" />
      <path
         inkscape:connector-curvature="0"
         style="fill:#338cc0;fill-opacity:1;fill-rule:nonzero;stroke:none;stroke-width:0.26458332"
         d="m 508.99259,207.48622 v 83.83734 83.83733 83.83732 84.03601 l -0.1987,3.17868 -0.1986,2.98 -0.3974,2.98 -0.3973,2.78133 -0.596,2.78132 -0.7947,2.58268 -0.9933,2.58265 -0.9933,2.58268 -0.9934,2.18533 -1.192,2.384 -1.3906,1.98667 -1.3907,2.18533 -1.5893,1.98668 -1.5894,1.788 -1.5893,1.78797 -1.788,1.58936 -1.788,1.58932 -1.9867,1.39068 -1.9866,1.39065 -1.9867,1.192 -1.9867,1.192 -2.1853,0.99335 -2.1853,0.99333 -2.1854,0.79467 -2.384,0.79465 -2.1853,0.596 -2.384,0.596 -2.384,0.39733 -4.768,0.596 -2.384,0.19867 h -2.384 -2.384 l -2.384,-0.19867 -4.768,-0.596 -2.384,-0.39733 -2.1853,-0.596 -2.384,-0.596 -2.1854,-0.79465 -2.1853,-0.79467 -2.1853,-0.99333 -2.1854,-0.99335 -2.1853,-1.192 -1.9867,-1.192 -1.9866,-1.39065 -1.788,-1.39068 -1.9867,-1.58932 -1.5893,-1.58936 -1.788,-1.78797 -1.5894,-1.788 -1.3906,-1.98668 -1.5894,-2.18533 -1.192,-1.98667 -1.192,-2.384 -1.192,-2.18533 -0.9933,-2.58268 -0.7947,-2.58265 -0.7946,-2.58268 -0.596,-2.78132 -0.596,-2.78133 -0.1987,-2.98 -0.3973,-2.98 v -3.17868 -84.03601 -83.83732 -83.83733 -83.83734 -3.17866 l 0.3973,-2.98 0.1987,-2.98 0.596,-2.78134 0.596,-2.78133 0.7946,-2.58267 0.7947,-2.58266 0.9933,-2.384 1.192,-2.384 1.192,-2.18534 1.192,-2.18533 1.5894,-2.18533 1.3906,-1.788 1.5894,-1.98667 1.788,-1.58934 1.5893,-1.788 1.9867,-1.58933 1.788,-1.39067 1.9866,-1.39066 1.9867,-1.192 2.1853,-1.192 2.1854,-0.99334 2.1853,-0.99333 2.1853,-0.79467 2.1854,-0.79466 2.384,-0.596 2.1853,-0.596 2.384,-0.39734 4.768,-0.596 2.384,-0.19866 h 2.384 2.384 l 2.384,0.19866 4.768,0.596 2.384,0.39734 2.384,0.596 2.1853,0.596 2.384,0.79466 2.1854,0.79467 2.1853,0.99333 2.1853,0.99334 1.9867,1.192 1.9867,1.192 1.9866,1.39066 1.9867,1.39067 1.788,1.58933 1.788,1.788 1.5893,1.58934 1.5894,1.98667 1.5893,1.788 1.3907,2.18533 1.3906,2.18533 1.192,2.18534 0.9934,2.384 0.9933,2.384 0.9933,2.58266 0.7947,2.58267 0.596,2.78133 0.3973,2.78134 0.3974,2.98 0.1986,2.98 z"
         id="path3768" />
      <path
         inkscape:connector-curvature="0"
         style="fill:#ff9940;fill-opacity:1;fill-rule:nonzero;stroke:none;stroke-width:0.26458332"
         d="m 319.46459,207.48622 v 123.76934 123.76933 123.76933 123.96801 3.17865 l -0.3973,2.98 -0.1987,2.98 -0.596,2.78135 -0.596,2.78133 -0.7947,2.58265 -0.7946,2.58268 -0.9934,2.384 -1.192,2.384 -1.192,2.384 -1.192,1.98665 -1.5893,2.18536 -1.3907,1.788 -1.5893,1.98665 -1.788,1.788 -1.58934,1.58935 -1.98665,1.58933 -1.788,1.39065 -1.98668,1.39067 -1.98668,1.192 -2.18532,1.19201 -2.18533,0.99332 -2.18532,0.99335 -2.18536,0.79465 -2.18532,0.79468 -2.384,0.596 -2.38401,0.596 -2.18532,0.39732 -4.76801,0.596 -2.384,0.19868 h -2.384 -2.384 l -2.384,-0.19868 -4.76801,-0.596 -2.38397,-0.39732 -2.384,-0.596 -2.18536,-0.596 -2.384,-0.79468 -2.18532,-0.79465 -2.18533,-0.99335 -2.18532,-0.99332 -1.98668,-1.19201 -1.98668,-1.192 -1.98665,-1.39067 -1.98668,-1.39065 -1.788,-1.58933 -1.788,-1.58935 -1.58932,-1.788 -1.78801,-1.98665 -1.39067,-1.788 -1.39065,-2.18536 -1.39068,-1.98665 -1.192,-2.384 -0.99332,-2.384 -0.99336,-2.384 -0.99332,-2.58268 -0.79465,-2.58265 -0.596,-2.78133 -0.39735,-2.78135 -0.39733,-2.98 -0.19867,-2.98 -0.19865,-3.17865 V 578.79422 455.02489 331.25556 207.48622 l 0.19865,-3.17866 0.19867,-2.98 0.39733,-2.98 0.39735,-2.78134 0.596,-2.78133 0.79465,-2.58267 0.99332,-2.58266 0.99336,-2.384 0.99332,-2.384 1.192,-2.18534 1.39068,-2.18533 1.39065,-2.18533 1.39067,-1.788 1.78801,-1.98667 1.58932,-1.58934 1.788,-1.788 1.788,-1.58933 1.98668,-1.39067 1.98665,-1.39066 1.98668,-1.192 1.98668,-1.192 2.18532,-0.99334 2.18533,-0.99333 2.18532,-0.79467 2.384,-0.79466 2.18536,-0.596 2.384,-0.596 2.38397,-0.39734 4.76801,-0.596 2.384,-0.19866 h 2.384 2.384 l 2.384,0.19866 4.76801,0.596 2.18532,0.39734 2.38401,0.596 2.384,0.596 2.18532,0.79466 2.18536,0.79467 2.18532,0.99333 2.18533,0.99334 2.18532,1.192 1.98668,1.192 1.98668,1.39066 1.788,1.39067 1.98665,1.58933 1.58934,1.788 1.788,1.58934 1.5893,1.98667 1.3907,1.788 1.5893,2.18533 1.192,2.18533 1.192,2.18534 1.192,2.384 0.9934,2.384 0.7946,2.58266 0.7947,2.58267 0.596,2.78133 0.596,2.78134 0.1987,2.98 0.3973,2.98 z"
         id="path3770" />
      <path
         inkscape:connector-curvature="0"
         style="fill:#ff9940;fill-opacity:1;fill-rule:nonzero;stroke:none;stroke-width:0.26458332"
         d="m 732.49259,558.92756 v -110.26 -110.06134 -10.52933 l 0.1987,-10.132 0.7946,-9.93333 0.7947,-9.536 1.3907,-9.536 1.5893,-8.94 1.9867,-8.74134 2.384,-8.54266 2.5826,-8.14534 2.98,-7.748 3.1787,-7.54933 3.7747,-7.152 3.9733,-6.95333 4.172,-6.556 4.5693,-6.15867 4.9667,-5.96 5.364,-5.56267 5.5627,-5.16533 5.96,-4.96667 6.3573,-4.56933 6.556,-4.172 6.9533,-3.97333 7.152,-3.37734 7.5494,-3.17867 7.9466,-2.78133 8.344,-2.58267 8.5427,-1.98666 8.94,-1.788 9.1387,-1.192 9.536,-0.99334 9.9333,-0.596 10.132,-0.19866 h 105.69071 l 6.3573,0.39733 5.7613,0.79467 5.364,1.39066 4.9667,1.788 2.384,1.192 2.1853,1.192 4.172,2.78134 3.7747,2.98 3.3773,3.576 2.98,3.576 2.5827,3.97333 2.384,4.37067 1.788,4.37067 2.384,9.13866 0.596,4.768 0.1987,4.768 -0.1987,4.768 -0.596,4.768 -0.9933,4.768 -1.3907,4.56934 -1.788,4.37066 -2.384,4.172 -2.5827,3.97334 -2.98,3.77466 -3.3773,3.576 -3.7747,2.98 -4.172,2.78134 -4.5693,2.384 -2.384,0.99333 -2.5827,0.79467 -5.364,1.39066 -5.7613,0.79467 -6.3573,0.39733 h -105.69071 -8.1453 l -7.3507,0.596 -6.9533,0.79467 -6.1587,1.192 -5.7613,1.788 -2.5827,1.192 -2.5827,1.192 -2.1853,1.39067 -2.1853,1.58933 -3.9734,3.576 -3.3773,4.56933 -2.98,5.16534 -2.384,6.35733 -0.9933,3.37733 -0.7947,3.576 -1.3907,8.344 -0.7946,9.13867 -0.596,10.52933 0.1986,11.52267 v 110.65734 110.65733 l -0.3973,6.15868 -0.7947,5.95997 -1.3906,5.36401 -1.788,4.96668 -1.192,2.384 -1.192,2.18532 -2.7814,4.17201 -2.98,3.77465 -3.576,3.37735 -3.7746,2.98 -3.9734,2.58265 -4.172,2.18533 -4.3706,1.788 -9.3374,2.384 -4.768,0.79468 -4.768,0.19868 -4.768,-0.19868 -4.768,-0.79468 -4.5693,-0.99332 -4.5693,-1.39068 -4.3707,-1.788 -4.3707,-2.18533 -3.9733,-2.58265 -3.576,-2.98 -3.576,-3.37735 -2.98,-3.77465 -2.7813,-4.17201 -2.384,-4.56932 -0.9934,-2.38401 -0.7946,-2.58267 -1.3907,-5.36401 -0.7947,-5.95997 z"
         id="path3772" />
      <path
         inkscape:connector-curvature="0"
         style="fill:#cc3380;fill-opacity:1;fill-rule:nonzero;stroke:none;stroke-width:0.26458332"
         d="m 508.99259,568.66221 v 5.96001 l 0.1987,5.76132 0.3973,5.56268 0.3973,5.16533 0.7947,4.96668 0.7947,4.768 0.7946,4.37066 1.192,4.172 1.192,3.97333 1.3907,3.77467 0.7947,1.78801 0.7946,1.788 1.5894,3.17865 1.788,3.17868 1.9866,2.78132 2.1854,2.58268 2.1853,2.384 2.384,2.384 1.192,0.99333 1.3907,0.99332 1.192,0.99336 1.3906,0.99332 2.7814,1.58933 2.98,1.58932 3.1786,1.39068 1.5894,0.596 1.5893,0.596 1.788,0.596 1.5893,0.39732 1.788,0.596 1.788,0.39736 1.788,0.39732 1.788,0.39733 3.9734,0.596 3.9733,0.39735 3.9733,0.39732 4.172,0.39733 h 4.3707 l 4.5693,0.19867 92.7774,-0.19867 3.1786,0.19867 2.98,0.19868 2.98,0.19865 2.98,0.596 2.5827,0.596 2.7813,0.79467 2.5827,0.79465 2.384,0.99336 2.384,0.99332 2.1853,1.39068 2.1854,1.192 1.9866,1.39065 1.9867,1.58935 1.788,1.58933 1.788,1.58932 1.5893,1.788 1.5894,1.788 1.5893,1.98668 1.192,1.98665 1.3907,1.98668 1.192,1.98667 0.9933,2.18533 0.9933,2.18533 0.7947,2.18532 0.7947,2.18536 0.596,2.384 0.596,2.384 0.3973,2.38397 0.3973,2.18536 0.1987,2.384 0.1987,2.384 0.1986,2.384 -0.1986,2.58265 v 2.384 l -0.3974,2.38401 -0.1986,2.18532 -0.596,2.384 -0.3974,2.384 -0.596,2.38401 -0.7946,2.18532 -0.7947,2.18535 -0.9933,2.18533 -0.9934,2.18533 -1.192,2.18535 -1.192,1.98665 -1.3906,1.98668 -1.3907,1.788 -1.5893,1.98665 -1.5894,1.788 -1.788,1.58935 -1.788,1.58933 -1.9866,1.58932 -1.9867,1.39068 -2.1853,1.192 -2.1854,1.39065 -2.384,0.99335 -2.384,0.99333 -2.5826,0.99332 -2.7814,0.79468 -2.5826,0.596 -2.98,0.39732 -2.7814,0.39735 -3.1786,0.19865 -3.1787,0.19868 h -93.1747 -4.9666 l -4.9667,-0.19868 -4.768,-0.19865 -4.768,-0.39735 -4.768,-0.39732 -4.768,-0.39733 -4.5693,-0.596 -4.5694,-0.79467 -4.5693,-0.79468 -4.3707,-0.79465 -4.3706,-0.99335 -4.3707,-1.192 -4.3707,-1.192 -4.172,-1.192 -4.172,-1.39065 -3.9733,-1.39068 -3.9733,-1.58932 -3.9734,-1.58933 -3.7746,-1.58935 -3.7747,-1.788 -3.7747,-1.98665 -3.7746,-1.98668 -3.576,-1.98665 -3.3774,-2.18535 -3.576,-2.18533 -3.3773,-2.384 -3.1787,-2.384 -3.1786,-2.58265 -3.1787,-2.58268 -3.1787,-2.78133 -2.98,-2.78135 -2.7813,-2.78133 -2.98,-2.98 -2.7813,-3.17865 -2.5827,-3.17868 -2.5827,-3.17868 -2.5826,-3.17865 -2.384,-3.576 -2.384,-3.37733 -2.1854,-3.576 -2.1853,-3.77468 -2.1853,-3.77465 -1.9867,-3.77468 -1.9867,-3.97332 -1.788,-3.97333 -1.788,-4.172 -1.5893,-4.17201 -1.5893,-4.172 -1.5894,-4.37068 -1.3906,-4.56933 -1.192,-4.37065 -1.192,-4.768 -1.192,-4.56933 -0.9934,-4.768 -0.9933,-4.96668 -0.7947,-4.96665 -0.7946,-4.96668 -0.596,-5.16533 -0.596,-5.16533 -0.3974,-5.364 -0.3973,-5.36401 -0.1987,-5.56268 -0.1986,-5.56265 v -5.56268 -3.17865 l 0.3973,-2.98 0.1987,-2.98 0.596,-2.78133 0.596,-2.78135 0.7946,-2.58265 0.7947,-2.58268 0.9933,-2.58265 1.192,-2.18535 1.192,-2.38401 1.192,-1.98665 1.5894,-2.18532 1.3906,-1.98668 1.5894,-1.788 1.788,-1.788 1.5893,-1.58933 1.9867,-1.58935 1.788,-1.39065 1.9866,-1.39068 1.9867,-1.192 2.1853,-1.192 2.1854,-0.99332 2.1853,-0.99333 2.1853,-0.79467 2.1854,-0.79468 2.384,-0.596 2.1853,-0.596 2.384,-0.39733 4.768,-0.596 2.384,-0.19867 h 2.384 2.384 l 2.384,0.19867 4.768,0.596 2.384,0.39733 2.384,0.596 2.1853,0.596 2.384,0.79468 2.1854,0.79467 2.1853,0.99333 2.1853,0.99332 1.9867,1.192 1.9867,1.192 1.9866,1.39068 1.9867,1.39065 1.788,1.58935 1.788,1.58933 1.5893,1.788 1.5894,1.788 1.5893,1.98668 1.3907,2.18532 1.3906,1.98665 1.192,2.38401 0.9934,2.18535 0.9933,2.58265 0.9933,2.58268 0.7947,2.58265 0.596,2.78135 0.3973,2.78133 0.3974,2.98 0.1986,2.98 z"
         id="path3774" />
      <path
         inkscape:connector-curvature="0"
         style="fill:#cc3380;fill-opacity:1;fill-rule:nonzero;stroke:none;stroke-width:0.26458332"
         d="m 951.22459,519.79023 -100.5253,-0.19868 -7.748,0.59601 -5.1654,0.99332 -1.5893,2.58268 -0.9933,1.58932 -0.3974,1.39068 v 41.91865 l 0.1987,11.72133 0.9933,10.72801 1.3907,9.73468 1.9867,8.54266 2.5826,7.748 3.1787,6.75466 3.7747,5.96 4.3706,4.96668 4.9667,4.37065 2.5827,1.788 2.98,1.78801 5.96,2.98 6.556,2.18532 7.3506,1.58936 7.748,1.192 3.9734,0.39732 4.3706,0.19868 8.7414,0.39732 92.77731,-0.19867 6.1587,0.39735 5.96,0.79465 5.364,1.39067 4.9666,1.78801 2.384,0.99332 2.1854,1.192 4.172,2.78133 3.7746,3.17868 3.576,3.37732 2.98,3.77468 2.5827,3.97333 2.1853,4.172 1.788,4.37065 1.3907,4.56936 0.9933,4.56932 0.7947,4.76801 0.1987,4.768 -0.1987,4.76798 -0.596,4.768 -2.384,9.33733 -1.788,4.37068 -2.1853,4.172 -2.5827,4.17201 -2.98,3.576 -3.3773,3.576 -3.7747,3.17865 -4.172,2.58268 -4.5693,2.384 -2.384,0.99333 -2.5827,0.99332 -5.364,1.39068 -5.7613,0.79467 -6.3574,0.39733 h -93.17461 l -9.9334,-0.19868 -9.536,-0.596 -9.536,-0.79465 -9.1386,-1.39067 -8.94,-1.58933 -8.7414,-2.18535 -8.5426,-2.384 -8.1454,-2.78133 -7.9466,-3.17865 -7.5494,-3.37735 -7.5493,-3.97333 -6.9533,-4.172 -6.9534,-4.56933 -6.3573,-4.96665 -6.3573,-5.36401 -5.7614,-5.76135 -5.5626,-5.95998 -5.364,-6.35736 -4.9667,-6.75465 -4.5693,-6.95333 -4.3707,-7.54933 -3.9733,-7.748 -3.576,-8.14533 -3.1787,-8.34401 -2.7813,-8.94001 -2.5827,-9.13865 -2.1853,-9.53601 -1.788,-9.73465 -1.3907,-10.13201 -0.9933,-10.52933 -0.596,-10.92669 -0.1987,-11.12533 v -41.91865 l 0.1987,-6.35733 0.3973,-6.35733 0.7947,-5.96 0.9933,-5.96001 2.7813,-11.12533 1.788,-5.364 2.1854,-5.16533 2.1853,-4.96668 2.5827,-4.768 5.96,-8.93998 6.556,-8.14536 3.7746,-3.77465 3.7747,-3.77468 4.172,-3.37733 4.172,-3.17865 9.1387,-5.76135 9.7346,-4.96665 5.1654,-2.18533 5.1653,-1.788 10.9267,-3.17868 11.5226,-2.384 11.92,-1.39067 6.1587,-0.19866 6.3573,-0.19867 100.5254,0.19867 6.1586,0.39733 5.7614,0.79467 5.364,1.39066 4.9666,1.78799 2.384,1.19201 2.1854,1.192 4.172,2.78135 3.7746,2.97998 3.3774,3.576 2.98,3.77468 2.5826,3.97332 2.1854,4.17201 1.788,4.37067 2.38401,9.33734 0.596,4.768 0.1986,4.76798 -0.1986,4.768 -0.596,4.768 -0.9934,4.56933 -1.39061,4.56935 -1.788,4.37066 -2.1854,4.37067 -2.5826,3.97333 -2.98,3.576 -3.3774,3.57601 -3.7746,2.98 -4.3707,2.78133 -4.5693,2.384 -2.384,0.99332 -2.5827,0.79468 -5.364,1.39065 -5.7613,0.79467 z"
         id="path3776" />
      <path
         inkscape:connector-curvature="0"
         style="fill:#cc3380;fill-opacity:1;fill-rule:nonzero;stroke:none;stroke-width:0.26458332"
         d="M 1093.4699,507.67155 V 360.45956 l 0.3974,-11.324 0.596,-10.92667 1.192,-10.728 1.788,-10.52933 2.1853,-10.132 2.5827,-9.93334 2.98,-9.73466 3.3773,-9.33734 3.7747,-9.13866 4.3706,-8.74134 4.5694,-8.344 4.9666,-8.14533 5.364,-7.748 5.5627,-7.35067 6.1587,-7.152 6.3573,-6.75466 6.556,-6.35734 6.9533,-6.15866 7.3507,-5.56267 7.3507,-5.364 7.9466,-4.96667 7.9467,-4.37066 8.344,-4.172 8.5427,-3.77467 8.7413,-3.37734 8.94,-2.78133 4.3707,-1.39067 4.768,-0.99333 9.1386,-2.18533 9.536,-1.58934 9.7347,-1.192 9.7347,-0.596 9.9333,-0.19866 9.9333,0.19866 9.7347,0.596 9.7347,1.192 9.3373,1.58934 9.3373,2.18533 9.1387,2.384 8.94,2.78133 8.7413,3.37734 8.5427,3.77467 8.344,4.172 7.9467,4.37066 7.748,4.96667 7.5493,5.364 7.3507,5.56267 6.9533,6.15866 6.556,6.35734 6.3573,6.75466 5.96,7.152 5.7614,7.35067 5.364,7.748 4.9666,8.14533 4.5694,8.54267 4.172,8.74133 3.9733,8.94 3.3773,9.33734 2.98,9.73466 2.5827,9.93334 2.1853,10.132 1.5894,10.52933 1.192,10.728 0.7946,10.92667 0.1987,11.324 -0.1987,6.15866 -0.9933,5.76134 -1.3907,5.364 -1.788,4.96666 -1.192,2.384 -1.192,2.18534 -2.5826,4.172 -3.1787,3.77466 -3.3773,3.576 -3.7747,2.98 -3.9733,2.58267 -4.172,2.18533 -4.5694,1.788 -9.1386,2.384 -4.768,0.596 -4.768,0.19867 -4.768,-0.19867 -4.768,-0.596 -4.768,-0.99333 -4.5694,-1.39067 -4.3706,-1.788 -4.172,-2.18533 -3.9734,-2.58267 -3.7746,-2.98 -3.3774,-3.576 -3.1786,-3.77466 -2.7814,-4.172 -2.1853,-4.56934 -0.9933,-2.384 -0.9934,-2.58266 -1.3906,-5.364 -0.7947,-5.76134 -0.1987,-6.15866 -0.596,-12.11867 -1.3906,-11.12533 -2.1854,-10.33067 -1.3906,-4.96667 -1.5894,-4.768 -3.7746,-8.94 -4.5694,-8.14533 -5.1653,-7.152 -2.98,-3.37733 -2.98,-3.17867 -6.3573,-5.96 -6.9534,-4.96667 -3.576,-2.18533 -3.7746,-1.98667 -7.748,-3.576 -8.344,-2.58266 -8.5427,-1.98667 -4.3707,-0.596 -4.3706,-0.596 -9.1387,-0.39733 -9.1387,0.39733 -8.7413,1.192 -8.7413,1.98667 -3.9734,1.192 -4.172,1.39066 -7.748,3.576 -3.7746,1.98667 -3.7747,2.18533 -6.9533,4.96667 -6.3574,5.96 -2.98,3.17867 -2.7813,3.37733 -5.1653,7.35067 -4.5694,7.94666 -3.7746,8.94 -1.5894,4.768 -1.5893,4.96667 -2.1853,10.33067 -1.3907,11.12533 -0.3973,5.96 v 6.15867 147.21199 l -0.3974,6.15868 -0.7946,5.76132 -1.3907,5.36401 -1.788,5.16533 -1.192,2.18532 -1.192,2.384 -2.7813,4.17201 -2.98,3.77468 -3.3774,3.37732 -3.7746,2.98 -3.9734,2.58268 -4.3706,2.18533 -4.3707,1.788 -9.1387,2.384 -4.768,0.596 -4.768,0.19865 -4.768,-0.19865 -4.768,-0.596 -4.768,-0.99335 -4.5693,-1.39065 -4.3707,-1.788 -4.172,-2.18533 -3.9733,-2.58268 -3.7747,-2.98 -3.3773,-3.37732 -3.1787,-3.77468 -2.7813,-4.17201 -2.1853,-4.56932 -0.9934,-2.58265 -0.9933,-2.58268 -1.3907,-5.36401 -0.7946,-5.76132 z"
         id="path3778" />
      <path
         inkscape:connector-curvature="0"
         style="fill:#cc3380;fill-opacity:1;fill-rule:nonzero;stroke:none;stroke-width:0.26458332"
         d="m 33.980598,551.77555 h -52.05069 -2.97997 l -3.17868,-0.19865 -2.98,-0.39735 -2.78133,-0.39732 -2.78133,-0.79468 -2.58267,-0.596 -2.58268,-0.99333 -2.384,-0.99332 -2.384,-0.99335 -2.18533,-1.192 -2.18533,-1.39065 -1.98667,-1.39068 -1.98665,-1.58933 -1.98668,-1.58932 -1.58933,-1.58935 -1.788,-1.788 -1.39067,-1.78801 -1.58933,-1.98665 -1.192,-1.98667 -1.39068,-1.98665 -0.99332,-1.98668 -1.192,-2.18533 -0.99333,-2.18535 -0.79467,-2.18533 -0.79468,-2.384 -0.596,-2.18532 -0.596,-2.384 -0.39733,-2.38401 -0.596,-4.768 -0.19867,-2.384 v -2.384 -2.384 l 0.19867,-2.38401 0.596,-4.768 0.39733,-2.38397 0.596,-2.18536 0.596,-2.384 0.79468,-2.18533 0.79467,-2.384 0.99333,-2.18532 1.192,-1.98668 0.99332,-2.18533 1.39068,-1.98667 1.192,-1.98665 1.58933,-1.98668 1.39067,-1.788 1.788,-1.788 1.788,-1.58933 1.78801,-1.58932 1.98665,-1.58936 1.98667,-1.39065 2.18533,-1.192 2.18533,-1.192 2.384,-1.192 2.384,-0.99335 2.58268,-0.79465 2.58267,-0.79468 2.78133,-0.596 2.78133,-0.596 2.98,-0.39732 3.17868,-0.19868 h 2.97997 77.48 4.17201 l 3.97335,0.39735 3.97333,0.39733 3.97332,0.79468 1.78801,0.39732 1.98667,0.39732 3.57598,1.19201 3.576,1.192 3.576,1.39067 3.37736,1.58933 3.37732,1.788 3.17865,1.788 3.178682,1.98668 2.98,2.18532 2.98001,2.38401 2.58265,2.58265 2.78135,2.58267 2.384,2.58268 2.38398,2.97998 2.18535,2.98 1.192,1.39068 0.99333,1.58932 0.99332,1.58935 0.99335,1.58933 1.788,3.37733 0.79465,1.58932 0.79468,1.788 1.58932,3.37736 1.19201,3.576 1.192,3.57597 0.99332,3.77468 0.39735,1.788 0.39733,1.98668 0.596,3.77465 0.39732,1.98668 0.19868,1.98665 0.19867,3.97335 0.19865,4.17201 -0.19865,24.63466 v 5.76133 l -0.19867,5.56265 -0.19868,5.56268 -0.596,5.36401 -0.39732,5.36397 -0.79468,5.36401 -0.79465,5.364 -0.79467,5.16533 -0.99333,5.16535 -1.192,4.96666 -1.192,4.96668 -1.39068,4.96665 -1.39065,4.96668 -1.58935,4.768 -1.58932,4.56933 -1.78801,4.768 -1.98667,4.56933 -1.78798,4.37065 -2.18535,4.37068 -2.18533,4.37068 -2.18532,4.37065 -2.384,4.172 -2.38401,3.97333 -2.58267,3.97333 -2.58265,3.97335 -2.781362,3.97333 -2.78132,3.77465 -2.78133,3.576 -2.98,3.57601 -3.17868,3.576 -2.98,3.37733 -3.37733,3.37735 -3.17865,3.17865 -3.37735,3.17868 -3.37733,3.17865 -3.576,2.98 -3.576,2.78135 -3.57601,2.78133 -3.77465,2.78133 -3.77468,2.58267 -3.97332,2.38401 -3.97333,2.384 -3.97333,2.384 -3.97335,2.18533 -4.17201,2.18532 -4.17197,1.98668 -4.17201,1.98665 -4.37067,1.788 -4.17201,1.58935 -4.37065,1.58933 -4.56935,1.58932 -4.37065,1.39068 -4.56933,1.192 -4.56933,1.192 -4.768,1.192 -4.56936,0.79465 -4.76797,0.99335 -4.76801,0.79465 -4.768,0.596 -4.96668,0.39735 -4.768,0.39733 -4.96666,0.39732 -4.96668,0.19868 h -4.96665 -4.96668 l -4.96665,-0.19868 -4.96668,-0.39732 -4.768,-0.39733 -4.768,-0.39735 -4.96666,-0.596 -4.768,-0.79465 -4.56933,-0.99335 -4.768,-0.79465 -4.569328,-1.192 -4.56933,-1.192 -4.56935,-1.192 -4.56933,-1.39068 -4.37065,-1.58932 -4.37068,-1.58933 -4.37068,-1.58935 -4.37065,-1.788 -4.172,-1.98665 -4.17201,-1.98668 -4.172,-2.18532 -3.97333,-2.18533 -3.97332,-2.384 -3.97333,-2.384 -3.77468,-2.38401 -3.77468,-2.58267 -3.77465,-2.78133 -3.77468,-2.78133 -3.576,-2.78135 -3.37733,-2.98 -3.576,-3.17865 -3.37733,-3.17868 -3.17867,-3.17865 -3.17865,-3.37735 -3.17868,-3.37733 -3.17865,-3.576 -2.78136,-3.57601 -2.98,-3.576 -2.78132,-3.77465 -2.78133,-3.97333 -2.58268,-3.77468 -2.58265,-4.172 -2.384,-3.97333 -2.384,-4.172 -2.18533,-4.37065 -2.18535,-4.172 -1.98665,-4.56936 -1.98668,-4.37065 -1.98668,-4.56933 -1.78797,-4.768 -1.58935,-4.56933 -1.58933,-4.768 -1.39067,-4.96668 -1.39065,-4.96665 -1.19201,-4.96668 -1.192,-4.96666 -0.99335,-5.16535 -0.79465,-5.16533 -0.79467,-5.364 -0.79468,-5.36401 -0.39732,-5.36397 -0.596,-5.36401 -0.19865,-5.56268 -0.19868,-5.56265 v -5.76133 -77.08267 -2.98001 l 0.19868,-3.17867 0.39732,-2.98001 0.39733,-2.78132 0.79467,-2.78133 0.596,-2.58268 0.99333,-2.58265 0.99332,-2.384 0.99335,-2.384 1.19201,-2.18533 1.39065,-2.18535 1.39067,-1.98665 1.58933,-1.98668 1.58935,-1.788 1.58932,-1.788 1.78801,-1.788 1.788,-1.39065 1.98665,-1.58935 1.98667,-1.192 1.98668,-1.39065 1.98665,-0.99335 2.18533,-1.19201 2.18535,-0.79464 2.18533,-0.99336 2.384,-0.79465 2.18532,-0.596 2.38401,-0.596 2.384,-0.39732 4.768,-0.596 2.384,-0.19868 h 2.384 2.38401 l 2.384,0.19868 4.768,0.596 2.384,0.39732 2.18533,0.596 2.384,0.596 2.18533,0.79465 2.384,0.99336 2.18532,0.79464 1.98668,1.19201 2.18533,0.99335 1.98667,1.39065 1.98665,1.192 1.98668,1.58935 1.788,1.39065 1.788,1.788 1.58933,1.788 1.58932,1.788 1.58936,1.98668 1.39065,1.98665 1.192,2.18535 1.192,2.18533 1.192,2.384 0.99335,2.384 0.79465,2.58265 0.79468,2.58268 0.596,2.78133 0.596,2.78132 0.39732,2.98001 0.19868,3.17867 v 2.98001 77.08267 l 0.19865,6.15866 0.39735,5.76132 0.19865,2.98001 0.19867,2.78132 0.79468,5.56268 1.192,5.16533 1.192,5.16533 0.596,2.58268 0.79465,2.384 0.79468,2.384 0.79467,2.384 0.79465,2.18533 0.99335,2.384 1.98665,4.172 2.18533,4.172 2.384,3.97333 1.192,1.98668 1.39068,1.788 1.192,1.78797 1.39068,1.78801 2.78132,3.37735 3.17865,3.17865 2.98001,2.98 1.58935,1.39068 1.788,1.39065 1.58933,1.39068 1.788,1.192 3.576,2.58267 3.576,2.18533 3.774648,1.98668 3.77468,1.78797 1.98665,0.79468 1.98668,0.79467 4.172,1.58933 4.172,1.192 4.17201,0.99332 4.37065,0.99336 4.37068,0.596 4.37065,0.596 h 2.384 l 2.18535,0.19865 h 4.56933 4.56933 l 2.384,-0.19865 h 2.18533 l 4.37068,-0.596 2.18532,-0.19868 2.18533,-0.39732 4.37068,-0.99336 2.18532,-0.39732 2.18533,-0.596 3.97335,-1.192 4.17201,-1.58933 1.98665,-0.79467 1.98667,-0.79468 3.77465,-1.78797 3.77468,-1.98668 1.788,-1.192 1.98665,-0.99333 3.37736,-2.58267 3.37732,-2.58268 3.37733,-2.78133 3.17868,-2.98 1.39065,-1.58933 1.58935,-1.58932 1.39065,-1.58935 1.39068,-1.788 1.39067,-1.78801 1.19201,-1.78797 2.58265,-3.77468 1.192,-1.98668 1.192,-1.98665 2.18532,-4.172 1.98668,-4.37068 0.99333,-2.18532 0.79467,-2.18533 0.79468,-2.384 0.79465,-2.384 1.39067,-4.96668 1.39065,-5.16533 0.39736,-2.58265 0.596,-2.58268 0.79465,-5.56268 0.19867,-2.78132 0.39733,-2.98001 0.19867,-5.76132 0.19868,-3.17868 v -2.97998 z"
         id="path3780" />
      <path
         inkscape:connector-curvature="0"
         style="fill:#338cc0;fill-opacity:1;fill-rule:nonzero;stroke:none;stroke-width:0.26458332"
         d="m 1195.7833,507.67155 v 45.09735 l 0.3973,11.91998 1.3907,11.32401 2.1853,10.33066 1.3907,4.96668 1.788,4.768 3.7746,8.74133 4.5694,8.14533 5.1653,7.35066 2.7813,3.37735 2.98,3.17865 6.3574,5.76133 6.9533,4.96668 3.576,2.384 3.7747,1.98668 7.9466,3.37732 8.1454,2.78133 8.5426,1.98668 4.3707,0.596 4.5693,0.39732 9.1387,0.39733 8.94,-0.39733 8.94,-0.99332 8.5427,-1.98668 4.172,-1.192 3.9733,-1.58933 7.9467,-3.37732 3.7746,-1.98668 3.576,-2.384 6.9534,-4.96668 6.3573,-5.76133 2.98,-3.17865 2.7813,-3.37735 5.364,-7.35066 4.3707,-8.14533 3.9733,-8.74133 1.5894,-4.768 1.3906,-4.96668 2.1854,-10.33066 1.3906,-11.32401 0.3974,-5.76132 v -6.15866 -86.42001 l 0.1986,-86.42 0.1987,-6.15867 0.7947,-5.76133 1.3906,-5.56267 1.9867,-4.96666 0.9933,-2.18534 1.192,-2.384 2.7814,-4.172 3.1786,-3.77466 3.3774,-3.37734 3.7746,-2.98 3.9734,-2.58266 4.172,-2.18534 4.5693,-1.788 9.1387,-2.384 4.768,-0.596 4.768,-0.19866 4.768,0.19866 4.768,0.596 4.5693,0.99334 4.5693,1.39066 4.5694,1.788 4.172,2.18534 3.9733,2.58266 3.7747,2.98 3.3773,3.37734 3.1787,3.77466 2.5826,4.172 2.384,4.56934 0.9934,2.58266 0.7946,2.58267 1.3907,5.364 0.9933,5.76133 0.1987,6.15867 v 86.42 86.42001 l -0.1987,11.32398 -0.7946,10.92669 -1.192,10.72798 -1.788,10.52933 -1.9867,10.13201 -2.5827,9.93333 -2.98,9.73468 -3.576,9.33733 -3.7746,8.93998 -4.172,8.74136 -4.5694,8.54265 -4.9666,7.94666 -5.364,7.94668 -5.7614,7.35065 -5.96,7.15201 -6.3573,6.75468 -6.7547,6.35733 -6.9533,5.96 -7.152,5.76133 -7.5493,5.364 -7.748,4.76801 -7.9467,4.56933 -8.344,4.172 -8.5427,3.77465 -8.7413,3.17868 -8.94,2.98 -4.5693,1.192 -4.5694,1.192 -9.3373,1.98665 -9.536,1.58935 -9.536,1.192 -9.7347,0.79465 -9.9333,0.19868 -9.9333,-0.19868 -9.9334,-0.79465 -9.536,-1.192 -9.536,-1.58935 -9.3373,-1.98665 -9.1387,-2.384 -8.94,-2.98 -8.7413,-3.17868 -8.5427,-3.77465 -8.1453,-4.172 -8.1453,-4.56933 -7.748,-4.76801 -7.5494,-5.364 -7.152,-5.76133 -6.9533,-5.96 -6.7547,-6.35733 -6.3573,-6.75468 -5.96,-7.15201 -5.7613,-7.35065 -5.1654,-7.94668 -5.1653,-7.94666 -4.5693,-8.54265 -4.172,-8.74136 -3.7747,-8.93998 -3.3773,-9.33733 -3.1787,-9.73468 -2.5827,-9.93333 -1.9866,-10.13201 -1.788,-10.52933 -1.192,-10.72798 -0.7947,-10.92669 -0.1987,-11.32398 v -45.09735 l 0.3974,-6.15866 0.7946,-5.76133 1.3907,-5.364 1.788,-4.96668 1.192,-2.384 1.192,-2.384 2.7813,-4.17198 2.98,-3.77468 3.576,-3.37732 3.576,-2.98001 3.9734,-2.58267 4.3706,-2.18533 4.3707,-1.788 9.1387,-2.384 4.768,-0.596 4.768,-0.19868 4.768,0.19868 4.768,0.596 4.768,0.99332 4.5693,1.39068 4.3707,1.788 4.172,2.18533 3.9733,2.58267 3.7747,2.98001 3.576,3.37732 2.98,3.77468 2.7813,4.17198 2.384,4.768 0.9933,2.384 0.7947,2.58268 1.3907,5.364 0.7946,5.76133 z"
         id="path3782" />
      <path
         inkscape:connector-curvature="0"
         style="fill:#cc3380;fill-opacity:1;fill-rule:nonzero;stroke:none;stroke-width:0.26458332"
         d="m 319.46459,399.19956 v 151.78134 151.78133 3.17865 l -0.3973,2.98 -0.1987,2.98 -0.596,2.78135 -0.596,2.78133 -0.7947,2.58265 -0.7946,2.58268 -0.9934,2.384 -1.192,2.384 -1.192,2.384 -1.192,1.98665 -1.5893,2.18536 -1.3907,1.788 -1.5893,1.98665 -1.788,1.788 -1.58934,1.58935 -1.98665,1.58933 -1.788,1.39065 -1.98668,1.39067 -1.98668,1.192 -2.18532,1.19201 -2.18533,0.99332 -2.18532,0.99335 -2.18536,0.79465 -2.18532,0.79468 -2.384,0.596 -2.38401,0.596 -2.18532,0.39732 -4.76801,0.596 -2.384,0.19868 h -2.384 -2.384 l -2.384,-0.19868 -4.76801,-0.596 -2.38397,-0.39732 -2.384,-0.596 -2.18536,-0.596 -2.384,-0.79468 -2.18532,-0.79465 -2.18533,-0.99335 -2.18532,-0.99332 -1.98668,-1.19201 -1.98668,-1.192 -1.98665,-1.39067 -1.98668,-1.39065 -1.788,-1.58933 -1.788,-1.58935 -1.58932,-1.788 -1.78801,-1.98665 -1.39067,-1.788 -1.39065,-2.18536 -1.39068,-1.98665 -1.192,-2.384 -0.99332,-2.384 -0.99336,-2.384 -0.99332,-2.58268 -0.79465,-2.58265 -0.596,-2.78133 -0.39735,-2.78135 -0.39733,-2.98 -0.19867,-2.98 -0.19865,-3.17865 V 550.9809 399.19956 l 0.19865,-3.17867 0.19867,-2.98 0.39733,-2.98 0.39735,-2.78133 0.596,-2.78134 0.79465,-2.78133 0.99332,-2.384 0.99336,-2.58267 0.99332,-2.384 1.192,-2.18533 1.39068,-2.18533 1.39065,-1.98667 1.39067,-1.98667 1.78801,-1.788 1.58932,-1.788 1.788,-1.58933 1.788,-1.58933 1.98668,-1.39067 1.98665,-1.39067 1.98668,-1.192 1.98668,-1.192 2.18532,-0.99333 2.18533,-0.99333 2.18532,-0.79467 2.384,-0.79467 2.18536,-0.596 2.384,-0.596 2.38397,-0.39733 4.76801,-0.596 2.384,-0.19867 h 2.384 2.384 l 2.384,0.19867 4.76801,0.596 2.18532,0.39733 2.38401,0.596 2.384,0.596 2.18532,0.79467 2.18536,0.79467 2.18532,0.99333 2.18533,0.99333 2.18532,1.192 1.98668,1.192 1.98668,1.39067 1.788,1.39067 1.98665,1.58933 1.58934,1.58933 1.788,1.788 1.5893,1.788 1.3907,1.98667 1.5893,1.98667 1.192,2.18533 1.192,2.18533 1.192,2.384 0.9934,2.58267 0.7946,2.384 0.7947,2.78133 0.596,2.78134 0.596,2.78133 0.1987,2.98 0.3973,2.98 z"
         id="path3784" />
    </g>
  </g>
</svg>
